<svg width="37.000000" height="40.000000" viewBox="0 0 37 40" fill="none" xmlns="http://www.w3.org/2000/svg" xmlns:xlink="http://www.w3.org/1999/xlink">
	<desc>
			Created with Pixso.
	</desc>
	<defs/>
	<path id="Angular" d="M18 -0.44L36.61 6.19L33.78 30.82L18 39.56L2.21 30.82L-0.62 6.19L18 -0.44ZM18 3.98L6.35 30.09L10.69 30.09L13.03 24.23L22.92 24.23L25.26 30.09L29.57 30.09L18 3.98ZM21.41 20.61L14.61 20.61L18 12.47L21.41 20.61Z" fill="#56575A" fill-opacity="1.000000" fill-rule="nonzero"/>
	<path id="Angular" d="M18 -0.44L36.61 6.19L33.78 30.82L18 39.56L2.21 30.82L-0.62 6.19L18 -0.44ZM18 3.98L6.35 30.09L10.69 30.09L13.03 24.23L22.92 24.23L25.26 30.09L29.57 30.09L18 3.98ZM21.41 20.61L14.61 20.61L18 12.47L21.41 20.61Z" fill="#C7C8C9" fill-opacity="1.000000" fill-rule="nonzero"/>
</svg>
