<svg width="50.000000" height="40.000000" viewBox="0 0 50 40" fill="none" xmlns="http://www.w3.org/2000/svg" xmlns:xlink="http://www.w3.org/1999/xlink">
	<desc>
			Created with Pixso.
	</desc>
	<defs/>
	<path id="Vector" d="M10.38 -0.31C7.53 -0.31 5.42 2.2 5.51 4.92C5.6 7.53 5.48 10.91 4.64 13.67C3.78 16.44 2.35 18.2 0 18.42L0 20.96C2.35 21.19 3.78 22.94 4.64 25.71C5.48 28.47 5.6 31.85 5.51 34.46C5.42 37.18 7.53 39.69 10.38 39.69L39.61 39.69C42.47 39.69 44.58 37.18 44.48 34.46C44.39 31.85 44.51 28.47 45.36 25.71C46.21 22.94 47.65 21.19 50 20.96L50 18.42C47.64 18.2 46.21 16.44 45.36 13.67C44.51 10.92 44.39 7.53 44.48 4.92C44.58 2.2 42.47 -0.31 39.61 -0.31L10.38 -0.31ZM33.89 24.31C33.89 28.06 31.11 30.33 26.5 30.33L18.64 30.33C18.53 30.33 18.42 30.31 18.31 30.27C18.21 30.22 18.12 30.16 18.04 30.08C17.96 30 17.9 29.91 17.86 29.81C17.81 29.7 17.79 29.59 17.79 29.48L17.79 9.9C17.79 9.79 17.81 9.68 17.86 9.58C17.9 9.47 17.96 9.38 18.04 9.3C18.12 9.22 18.21 9.16 18.31 9.12C18.42 9.07 18.53 9.05 18.64 9.05L26.45 9.05C30.3 9.05 32.83 11.15 32.83 14.36C32.83 16.62 31.13 18.64 28.96 18.99L28.96 19.11C31.91 19.43 33.89 21.48 33.89 24.31ZM25.64 11.75L21.16 11.75L21.16 18.1L24.93 18.1C27.85 18.1 29.46 16.93 29.46 14.82C29.46 12.84 28.08 11.75 25.64 11.75L25.64 11.75ZM21.16 20.63L21.16 27.63L25.8 27.63C28.84 27.63 30.45 26.41 30.45 24.11C30.45 21.81 28.8 20.63 25.61 20.63L21.16 20.63Z" fill="#56575A" fill-opacity="1.000000" fill-rule="nonzero"/>
	<path id="Vector" d="M10.38 -0.31C7.53 -0.31 5.42 2.2 5.51 4.92C5.6 7.53 5.48 10.91 4.64 13.67C3.78 16.44 2.35 18.2 0 18.42L0 20.96C2.35 21.19 3.78 22.94 4.64 25.71C5.48 28.47 5.6 31.85 5.51 34.46C5.42 37.18 7.53 39.69 10.38 39.69L39.61 39.69C42.47 39.69 44.58 37.18 44.48 34.46C44.39 31.85 44.51 28.47 45.36 25.71C46.21 22.94 47.65 21.19 50 20.96L50 18.42C47.64 18.2 46.21 16.44 45.36 13.67C44.51 10.92 44.39 7.53 44.48 4.92C44.58 2.2 42.47 -0.31 39.61 -0.31L10.38 -0.31ZM33.89 24.31C33.89 28.06 31.11 30.33 26.5 30.33L18.64 30.33C18.53 30.33 18.42 30.31 18.31 30.27C18.21 30.22 18.12 30.16 18.04 30.08C17.96 30 17.9 29.91 17.86 29.81C17.81 29.7 17.79 29.59 17.79 29.48L17.79 9.9C17.79 9.79 17.81 9.68 17.86 9.58C17.9 9.47 17.96 9.38 18.04 9.3C18.12 9.22 18.21 9.16 18.31 9.12C18.42 9.07 18.53 9.05 18.64 9.05L26.45 9.05C30.3 9.05 32.83 11.15 32.83 14.36C32.83 16.62 31.13 18.64 28.96 18.99L28.96 19.11C31.91 19.43 33.89 21.48 33.89 24.31ZM25.64 11.75L21.16 11.75L21.16 18.1L24.93 18.1C27.85 18.1 29.46 16.93 29.46 14.82C29.46 12.84 28.08 11.75 25.64 11.75L25.64 11.75ZM21.16 20.63L21.16 27.63L25.8 27.63C28.84 27.63 30.45 26.41 30.45 24.11C30.45 21.81 28.8 20.63 25.61 20.63L21.16 20.63Z" fill="#C7C8C9" fill-opacity="1.000000" fill-rule="nonzero"/>
</svg>
