<svg width="35.000000" height="40.000000" viewBox="0 0 35 40" fill="none" xmlns="http://www.w3.org/2000/svg" xmlns:xlink="http://www.w3.org/1999/xlink">
	<desc>
			Created with Pixso.
	</desc>
	<defs/>
	<path id="Vector" d="M-0.5 -0.44L34.5 -0.44L31.31 35.5L16.96 39.56L2.68 35.5L-0.5 -0.44ZM27.98 6.92L6.01 6.91L6.37 11.28L23.24 11.28L22.82 15.81L11.75 15.81L12.15 20.1L22.45 20.1L21.84 25.97L16.99 27.31L12.07 25.96L11.75 22.44L7.4 22.44L7.89 28.87L17 31.71L25.95 29.16L27.98 6.92Z" fill="#56575A" fill-opacity="1.000000" fill-rule="nonzero"/>
	<path id="Vector" d="M-0.5 -0.44L34.5 -0.44L31.31 35.5L16.96 39.56L2.68 35.5L-0.5 -0.44ZM27.98 6.92L6.01 6.91L6.37 11.28L23.24 11.28L22.82 15.81L11.75 15.81L12.15 20.1L22.45 20.1L21.84 25.97L16.99 27.31L12.07 25.96L11.75 22.44L7.4 22.44L7.89 28.87L17 31.71L25.95 29.16L27.98 6.92Z" fill="#C7C8C9" fill-opacity="1.000000" fill-rule="nonzero"/>
</svg>
