<svg width="40.000000" height="40.000000" viewBox="0 0 40 40" fill="none" xmlns="http://www.w3.org/2000/svg" xmlns:xlink="http://www.w3.org/1999/xlink">
	<desc>
			Created with Pixso.
	</desc>
	<defs/>
	<path id="Vector" d="M0 -0.44L40 -0.44L40 39.56L0 39.56L0 -0.44ZM36.72 30.02C36.43 28.2 35.24 26.66 31.71 25.23C30.49 24.66 29.12 24.26 28.72 23.33C28.57 22.78 28.54 22.48 28.64 22.16C28.89 21.08 30.17 20.76 31.17 21.06C31.82 21.26 32.42 21.76 32.79 22.56C34.52 21.43 34.52 21.43 35.72 20.68C35.27 19.98 35.04 19.68 34.74 19.38C33.69 18.21 32.29 17.61 30.02 17.66L28.84 17.81C27.72 18.08 26.64 18.68 25.99 19.48C24.09 21.63 24.64 25.38 26.94 26.93C29.22 28.63 32.54 29.01 32.97 30.61C33.37 32.56 31.52 33.18 29.69 32.96C28.34 32.66 27.59 31.98 26.77 30.73L23.72 32.48C24.07 33.28 24.47 33.63 25.07 34.33C27.97 37.26 35.22 37.11 36.52 32.66C36.57 32.51 36.92 31.48 36.64 29.91L36.72 30.02ZM21.75 17.95L18 17.95C18 21.18 17.99 24.39 17.99 27.62C17.99 29.67 18.09 31.56 17.75 32.14C17.2 33.29 15.79 33.14 15.14 32.94C14.49 32.61 14.15 32.16 13.76 31.51C13.66 31.34 13.58 31.19 13.55 31.19L10.51 33.06C11.02 34.11 11.76 35.02 12.72 35.59C14.14 36.44 16.06 36.72 18.06 36.27C19.37 35.89 20.49 35.11 21.08 33.91C21.93 32.36 21.75 30.46 21.74 28.34C21.76 24.91 21.74 21.49 21.74 18.04L21.75 17.95Z" fill="#56575A" fill-opacity="1.000000" fill-rule="nonzero"/>
	<path id="Vector" d="M0 -0.44L40 -0.44L40 39.56L0 39.56L0 -0.44ZM36.72 30.02C36.43 28.2 35.24 26.66 31.71 25.23C30.49 24.66 29.12 24.26 28.72 23.33C28.57 22.78 28.54 22.48 28.64 22.16C28.89 21.08 30.17 20.76 31.17 21.06C31.82 21.26 32.42 21.76 32.79 22.56C34.52 21.43 34.52 21.43 35.72 20.68C35.27 19.98 35.04 19.68 34.74 19.38C33.69 18.21 32.29 17.61 30.02 17.66L28.84 17.81C27.72 18.08 26.64 18.68 25.99 19.48C24.09 21.63 24.64 25.38 26.94 26.93C29.22 28.63 32.54 29.01 32.97 30.61C33.37 32.56 31.52 33.18 29.69 32.96C28.34 32.66 27.59 31.98 26.77 30.73L23.72 32.48C24.07 33.28 24.47 33.63 25.07 34.33C27.97 37.26 35.22 37.11 36.52 32.66C36.57 32.51 36.92 31.48 36.64 29.91L36.72 30.02ZM21.75 17.95L18 17.95C18 21.18 17.99 24.39 17.99 27.62C17.99 29.67 18.09 31.56 17.75 32.14C17.2 33.29 15.79 33.14 15.14 32.94C14.49 32.61 14.15 32.16 13.76 31.51C13.66 31.34 13.58 31.19 13.55 31.19L10.51 33.06C11.02 34.11 11.76 35.02 12.72 35.59C14.14 36.44 16.06 36.72 18.06 36.27C19.37 35.89 20.49 35.11 21.08 33.91C21.93 32.36 21.75 30.46 21.74 28.34C21.76 24.91 21.74 21.49 21.74 18.04L21.75 17.95Z" fill="#C7C8C9" fill-opacity="1.000000" fill-rule="nonzero"/>
</svg>
