<svg width="53.000000" height="40.000000" viewBox="0 0 53 40" fill="none" xmlns="http://www.w3.org/2000/svg" xmlns:xlink="http://www.w3.org/1999/xlink">
	<desc>
			Created with Pixso.
	</desc>
	<defs/>
	<path id="SASS" d="M45.25 22.56C43.39 22.57 41.78 23.01 40.42 23.68C39.92 22.69 39.43 21.82 39.34 21.17C39.24 20.42 39.13 19.96 39.24 19.07C39.36 18.17 39.89 16.9 39.88 16.8C39.87 16.7 39.76 16.24 38.69 16.23C37.62 16.22 36.69 16.44 36.58 16.72C36.48 17 36.27 17.65 36.14 18.31C35.95 19.28 33.99 22.76 32.87 24.58C32.51 23.87 32.2 23.25 32.13 22.75C32.03 22 31.92 21.54 32.03 20.65C32.15 19.75 32.68 18.47 32.67 18.38C32.66 18.28 32.55 17.82 31.48 17.81C30.41 17.8 29.48 18.02 29.37 18.3C29.27 18.58 29.15 19.24 28.93 19.89C28.7 20.53 26.1 26.34 25.42 27.84C25.14 28.44 24.85 29.04 24.55 29.64C24.55 29.64 24.54 29.67 24.51 29.72C24.42 29.9 24.32 30.09 24.22 30.27L24.22 30.28C24.07 30.54 23.92 30.79 23.84 30.79C23.78 30.79 23.67 30.09 23.86 29.13C24.25 27.12 25.18 23.98 25.17 23.87C25.17 23.81 25.34 23.27 24.56 22.98C23.8 22.7 23.53 23.17 23.46 23.17C23.39 23.17 23.34 23.34 23.34 23.34C23.34 23.34 24.19 19.81 21.73 19.81C20.19 19.81 18.06 21.49 17.01 23.01C15.81 23.66 14.62 24.32 13.43 24.97C12.85 25.29 12.26 25.61 11.7 25.92C11.66 25.88 11.62 25.83 11.58 25.79C8.6 22.6 3.09 20.35 3.32 16.08C3.41 14.52 3.95 10.43 13.91 5.46C22.12 1.41 28.64 2.54 29.77 5.02C31.39 8.57 26.28 15.15 17.8 16.11C14.57 16.47 12.87 15.22 12.44 14.75C11.99 14.26 11.93 14.24 11.76 14.33C11.49 14.48 11.66 14.92 11.76 15.17C12.01 15.83 13.06 17 14.82 17.58C16.38 18.08 20.17 18.37 24.76 16.59C29.89 14.61 33.9 9.08 32.73 4.45C31.55 -0.24 23.75 -1.79 16.38 0.83C11.99 2.39 7.24 4.84 3.82 8.04C-0.24 11.84 -0.89 15.14 -0.62 16.53C0.32 21.44 7.09 24.63 9.8 27C9.67 27.08 9.54 27.14 9.43 27.2C8.08 27.87 2.91 30.57 1.63 33.43C0.17 36.66 1.86 38.98 2.98 39.29C6.46 40.26 10.04 38.52 11.96 35.66C13.87 32.79 13.64 29.07 12.75 27.37C12.74 27.35 12.73 27.33 12.71 27.31C13.07 27.11 13.43 26.89 13.78 26.69C14.42 26.31 15.07 25.94 15.73 25.59C15.4 26.49 15.16 27.57 15.04 29.13C14.9 30.96 15.65 33.34 16.63 34.28C17.07 34.68 17.59 34.69 17.92 34.69C19.07 34.69 19.58 33.74 20.16 32.61C20.86 31.23 21.49 29.62 21.49 29.62C21.49 29.62 20.7 33.96 22.85 33.96C23.63 33.96 24.41 32.95 24.77 32.43L24.77 32.44C24.77 32.44 24.79 32.41 24.82 32.35C24.9 32.22 24.95 32.14 24.95 32.14L24.95 32.12C25.26 31.58 25.96 30.34 27.01 28.28C28.35 25.63 29.65 22.32 29.65 22.32C29.65 22.32 29.76 23.13 30.16 24.48C30.4 25.26 30.88 26.13 31.27 26.97C30.96 27.41 30.77 27.65 30.77 27.65L30.78 27.66C30.52 27.99 30.25 28.35 29.95 28.7C28.89 29.97 27.62 31.42 27.45 31.84C27.24 32.34 27.29 32.7 27.68 32.99C27.96 33.2 28.47 33.23 28.98 33.2C29.94 33.14 30.61 32.9 30.94 32.76C31.46 32.57 32.06 32.29 32.63 31.87C33.67 31.1 34.3 30 34.25 28.55C34.22 27.75 33.95 26.95 33.63 26.2C33.73 26.06 33.82 25.93 33.91 25.79C35.56 23.38 36.84 20.74 36.84 20.74C36.84 20.74 36.95 21.55 37.35 22.9C37.55 23.58 37.95 24.32 38.3 25.04C36.75 26.3 35.79 27.76 35.45 28.71C34.84 30.49 35.32 31.28 36.22 31.47C36.63 31.56 37.22 31.36 37.65 31.18C38.19 31 38.83 30.7 39.45 30.25C40.49 29.48 41.49 28.41 41.43 26.96C41.41 26.3 41.23 25.64 40.99 25.01C42.3 24.47 44 24.16 46.16 24.42C50.8 24.96 51.71 27.86 51.54 29.07C51.36 30.29 50.39 30.95 50.07 31.16C49.75 31.36 49.64 31.43 49.67 31.58C49.71 31.79 49.86 31.78 50.14 31.74C50.52 31.67 52.57 30.76 52.66 28.52C52.8 25.65 50.08 22.53 45.25 22.56ZM9.48 34.62C7.94 36.29 5.8 36.93 4.87 36.39C3.88 35.81 4.27 33.34 6.16 31.57C7.31 30.49 8.79 29.48 9.77 28.87C10 28.73 10.33 28.54 10.73 28.29C10.8 28.25 10.83 28.24 10.83 28.24L11.07 28.09C11.76 30.62 11.1 32.85 9.48 34.62ZM20.68 27C20.15 28.3 19.03 31.65 18.35 31.46C17.76 31.3 17.4 28.77 18.23 26.27C18.65 25.01 19.53 23.51 20.05 22.93C20.89 21.99 21.81 21.68 22.04 22.06C22.32 22.56 21.02 26.18 20.68 27ZM29.93 31.42C29.71 31.54 29.49 31.62 29.39 31.56C29.33 31.52 29.49 31.36 29.49 31.36C29.49 31.36 30.65 30.12 31.11 29.55C31.37 29.22 31.68 28.83 32.01 28.39L32.01 28.52C32.01 30.01 30.57 31.01 29.93 31.42L29.93 31.42ZM37.06 29.79C36.89 29.68 36.92 29.29 37.48 28.07C37.69 27.59 38.2 26.79 39.07 26.02C39.16 26.34 39.23 26.64 39.22 26.92C39.21 28.8 37.87 29.5 37.06 29.79Z" fill="#56575A" fill-opacity="1.000000" fill-rule="nonzero"/>
	<path id="SASS" d="M45.25 22.56C43.39 22.57 41.78 23.01 40.42 23.68C39.92 22.69 39.43 21.82 39.34 21.17C39.24 20.42 39.13 19.96 39.24 19.07C39.36 18.17 39.89 16.9 39.88 16.8C39.87 16.7 39.76 16.24 38.69 16.23C37.62 16.22 36.69 16.44 36.58 16.72C36.48 17 36.27 17.65 36.14 18.31C35.95 19.28 33.99 22.76 32.87 24.58C32.51 23.87 32.2 23.25 32.13 22.75C32.03 22 31.92 21.54 32.03 20.65C32.15 19.75 32.68 18.47 32.67 18.38C32.66 18.28 32.55 17.82 31.48 17.81C30.41 17.8 29.48 18.02 29.37 18.3C29.27 18.58 29.15 19.24 28.93 19.89C28.7 20.53 26.1 26.34 25.42 27.84C25.14 28.44 24.85 29.04 24.55 29.64C24.55 29.64 24.54 29.67 24.51 29.72C24.42 29.9 24.32 30.09 24.22 30.27L24.22 30.28C24.07 30.54 23.92 30.79 23.84 30.79C23.78 30.79 23.67 30.09 23.86 29.13C24.25 27.12 25.18 23.98 25.17 23.87C25.17 23.81 25.34 23.27 24.56 22.98C23.8 22.7 23.53 23.17 23.46 23.17C23.39 23.17 23.34 23.34 23.34 23.34C23.34 23.34 24.19 19.81 21.73 19.81C20.19 19.81 18.06 21.49 17.01 23.01C15.81 23.66 14.62 24.32 13.43 24.97C12.85 25.29 12.26 25.61 11.7 25.92C11.66 25.88 11.62 25.83 11.58 25.79C8.6 22.6 3.09 20.35 3.32 16.08C3.41 14.52 3.95 10.43 13.91 5.46C22.12 1.41 28.64 2.54 29.77 5.02C31.39 8.57 26.28 15.15 17.8 16.11C14.57 16.47 12.87 15.22 12.44 14.75C11.99 14.26 11.93 14.24 11.76 14.33C11.49 14.48 11.66 14.92 11.76 15.17C12.01 15.83 13.06 17 14.82 17.58C16.38 18.08 20.17 18.37 24.76 16.59C29.89 14.61 33.9 9.08 32.73 4.45C31.55 -0.24 23.75 -1.79 16.38 0.83C11.99 2.39 7.24 4.84 3.82 8.04C-0.24 11.84 -0.89 15.14 -0.62 16.53C0.32 21.44 7.09 24.63 9.8 27C9.67 27.08 9.54 27.14 9.43 27.2C8.08 27.87 2.91 30.57 1.63 33.43C0.17 36.66 1.86 38.98 2.98 39.29C6.46 40.26 10.04 38.52 11.96 35.66C13.87 32.79 13.64 29.07 12.75 27.37C12.74 27.35 12.73 27.33 12.71 27.31C13.07 27.11 13.43 26.89 13.78 26.69C14.42 26.31 15.07 25.94 15.73 25.59C15.4 26.49 15.16 27.57 15.04 29.13C14.9 30.96 15.65 33.34 16.63 34.28C17.07 34.68 17.59 34.69 17.92 34.69C19.07 34.69 19.58 33.74 20.16 32.61C20.86 31.23 21.49 29.62 21.49 29.62C21.49 29.62 20.7 33.96 22.85 33.96C23.63 33.96 24.41 32.95 24.77 32.43L24.77 32.44C24.77 32.44 24.79 32.41 24.82 32.35C24.9 32.22 24.95 32.14 24.95 32.14L24.95 32.12C25.26 31.58 25.96 30.34 27.01 28.28C28.35 25.63 29.65 22.32 29.65 22.32C29.65 22.32 29.76 23.13 30.16 24.48C30.4 25.26 30.88 26.13 31.27 26.97C30.96 27.41 30.77 27.65 30.77 27.65L30.78 27.66C30.52 27.99 30.25 28.35 29.95 28.7C28.89 29.97 27.62 31.42 27.45 31.84C27.24 32.34 27.29 32.7 27.68 32.99C27.96 33.2 28.47 33.23 28.98 33.2C29.94 33.14 30.61 32.9 30.94 32.76C31.46 32.57 32.06 32.29 32.63 31.87C33.67 31.1 34.3 30 34.25 28.55C34.22 27.75 33.95 26.95 33.63 26.2C33.73 26.06 33.82 25.93 33.91 25.79C35.56 23.38 36.84 20.74 36.84 20.74C36.84 20.74 36.95 21.55 37.35 22.9C37.55 23.58 37.95 24.32 38.3 25.04C36.75 26.3 35.79 27.76 35.45 28.71C34.84 30.49 35.32 31.28 36.22 31.47C36.63 31.56 37.22 31.36 37.65 31.18C38.19 31 38.83 30.7 39.45 30.25C40.49 29.48 41.49 28.41 41.43 26.96C41.41 26.3 41.23 25.64 40.99 25.01C42.3 24.47 44 24.16 46.16 24.42C50.8 24.96 51.71 27.86 51.54 29.07C51.36 30.29 50.39 30.95 50.07 31.16C49.75 31.36 49.64 31.43 49.67 31.58C49.71 31.79 49.86 31.78 50.14 31.74C50.52 31.67 52.57 30.76 52.66 28.52C52.8 25.65 50.08 22.53 45.25 22.56ZM9.48 34.62C7.94 36.29 5.8 36.93 4.87 36.39C3.88 35.81 4.27 33.34 6.16 31.57C7.31 30.49 8.79 29.48 9.77 28.87C10 28.73 10.33 28.54 10.73 28.29C10.8 28.25 10.83 28.24 10.83 28.24L11.07 28.09C11.76 30.62 11.1 32.85 9.48 34.62ZM20.68 27C20.15 28.3 19.03 31.65 18.35 31.46C17.76 31.3 17.4 28.77 18.23 26.27C18.65 25.01 19.53 23.51 20.05 22.93C20.89 21.99 21.81 21.68 22.04 22.06C22.32 22.56 21.02 26.18 20.68 27ZM29.93 31.42C29.71 31.54 29.49 31.62 29.39 31.56C29.33 31.52 29.49 31.36 29.49 31.36C29.49 31.36 30.65 30.12 31.11 29.55C31.37 29.22 31.68 28.83 32.01 28.39L32.01 28.52C32.01 30.01 30.57 31.01 29.93 31.42L29.93 31.42ZM37.06 29.79C36.89 29.68 36.92 29.29 37.48 28.07C37.69 27.59 38.2 26.79 39.07 26.02C39.16 26.34 39.23 26.64 39.22 26.92C39.21 28.8 37.87 29.5 37.06 29.79Z" fill="#C7C8C9" fill-opacity="1.000000" fill-rule="nonzero"/>
</svg>
