<svg width="40.000000" height="40.000000" viewBox="0 0 40 40" fill="none" xmlns="http://www.w3.org/2000/svg" xmlns:xlink="http://www.w3.org/1999/xlink">
	<desc>
			Created with Pixso.
	</desc>
	<defs/>
	<path id="TypeScript" d="M0 19.56L0 39.56L40 39.56L40 -0.44L0 -0.44L0 19.56ZM32.23 17.97C33.19 18.19 34.06 18.69 34.73 19.41C35.1 19.8 35.64 20.52 35.69 20.69C35.7 20.75 33.97 21.91 32.91 22.56C32.87 22.59 32.72 22.43 32.55 22.17C32.03 21.42 31.49 21.1 30.66 21.04C29.45 20.96 28.67 21.59 28.68 22.65C28.67 22.91 28.73 23.17 28.85 23.4C29.12 23.96 29.62 24.29 31.16 24.96C34.03 26.19 35.25 27 36.02 28.15C36.87 29.44 37.06 31.5 36.48 33.04C35.85 34.7 34.27 35.83 32.06 36.2C31.37 36.32 29.75 36.3 29.01 36.17C27.4 35.88 25.88 35.09 24.94 34.05C24.57 33.64 23.85 32.58 23.9 32.51C23.92 32.48 24.08 32.38 24.26 32.28L25.75 31.41L26.9 30.75L27.14 31.1C27.48 31.62 28.22 32.32 28.66 32.55C29.94 33.23 31.69 33.13 32.55 32.36C32.91 32.07 33.1 31.62 33.08 31.16C33.08 30.7 33.02 30.49 32.77 30.14C32.46 29.7 31.83 29.32 30.03 28.54C27.96 27.65 27.07 27.1 26.27 26.23C25.76 25.65 25.38 24.97 25.16 24.23C25.02 23.66 24.98 22.24 25.09 21.67C25.52 19.68 27.03 18.29 29.2 17.88C29.9 17.74 31.54 17.79 32.23 17.96L32.23 17.97ZM22.84 19.64L22.85 21.27L17.64 21.27L17.64 36.07L13.96 36.07L13.96 21.27L8.76 21.27L8.76 19.67C8.76 18.78 8.78 18.04 8.8 18.02C8.82 17.99 11.99 17.98 15.83 17.99L22.82 18.01L22.84 19.64Z" fill="#56575A" fill-opacity="1.000000" fill-rule="nonzero"/>
	<path id="TypeScript" d="M0 19.56L0 39.56L40 39.56L40 -0.44L0 -0.44L0 19.56ZM32.23 17.97C33.19 18.19 34.06 18.69 34.73 19.41C35.1 19.8 35.64 20.52 35.69 20.69C35.7 20.75 33.97 21.91 32.91 22.56C32.87 22.59 32.72 22.43 32.55 22.17C32.03 21.42 31.49 21.1 30.66 21.04C29.45 20.96 28.67 21.59 28.68 22.65C28.67 22.91 28.73 23.17 28.85 23.4C29.12 23.96 29.62 24.29 31.16 24.96C34.03 26.19 35.25 27 36.02 28.15C36.87 29.44 37.06 31.5 36.48 33.04C35.85 34.7 34.27 35.83 32.06 36.2C31.37 36.32 29.75 36.3 29.01 36.17C27.4 35.88 25.88 35.09 24.94 34.05C24.57 33.64 23.85 32.58 23.9 32.51C23.92 32.48 24.08 32.38 24.26 32.28L25.75 31.41L26.9 30.75L27.14 31.1C27.48 31.62 28.22 32.32 28.66 32.55C29.94 33.23 31.69 33.13 32.55 32.36C32.91 32.07 33.1 31.62 33.08 31.16C33.08 30.7 33.02 30.49 32.77 30.14C32.46 29.7 31.83 29.32 30.03 28.54C27.96 27.65 27.07 27.1 26.27 26.23C25.76 25.65 25.38 24.97 25.16 24.23C25.02 23.66 24.98 22.24 25.09 21.67C25.52 19.68 27.03 18.29 29.2 17.88C29.9 17.74 31.54 17.79 32.23 17.96L32.23 17.97ZM22.84 19.64L22.85 21.27L17.64 21.27L17.64 36.07L13.96 36.07L13.96 21.27L8.76 21.27L8.76 19.67C8.76 18.78 8.78 18.04 8.8 18.02C8.82 17.99 11.99 17.98 15.83 17.99L22.82 18.01L22.84 19.64Z" fill="#C7C8C9" fill-opacity="1.000000" fill-rule="nonzero"/>
</svg>
